<?xml version="1.0" encoding="UTF-8" standalone="no"?>
<svg
   xmlns:dc="http://purl.org/dc/elements/1.1/"
   xmlns:cc="http://creativecommons.org/ns#"
   xmlns:rdf="http://www.w3.org/1999/02/22-rdf-syntax-ns#"
   xmlns:svg="http://www.w3.org/2000/svg"
   xmlns="http://www.w3.org/2000/svg"
   viewBox="0 0 415.9017 209.4994"
   height="209.4994"
   width="415.9017"
   xml:space="preserve"
   id="svg2"
   version="1.1"><metadata
     id="metadata8"><rdf:RDF><cc:Work
         rdf:about=""><dc:format>image/svg+xml</dc:format><dc:type
           rdf:resource="http://purl.org/dc/dcmitype/StillImage" /></cc:Work></rdf:RDF></metadata><defs
     id="defs6" /><g
     transform="matrix(1.3333333,0,0,1.3333333,0,5.9041519e-6)"
     id="g10"><g
       id="g12"><path
         id="path14"
         style="fill:#2483d1;fill-opacity:1;fill-rule:nonzero;stroke:none"
         d="m 58.723,51.723 c 0,5.332 0.105,14.742 7.531,14.742 7.84,0 16.308,-11.086 20.387,-16.938 -0.211,1.36 -0.211,2.614 -0.211,3.973 0,4.598 0.523,14.742 6.902,14.742 7.945,0 18.922,-14.012 22.266,-20.597 0.316,-0.629 0.734,-1.465 0.734,-2.196 0,-1.047 -0.211,-1.988 -1.465,-1.988 -1.148,0 -2.508,1.883 -3.137,2.93 -2.402,3.867 -12.023,17.25 -16.203,17.25 -2.824,0 -3.136,-5.438 -3.136,-7.422 0,-6.485 1.879,-16.625 4.179,-22.688 0.418,-1.258 1.047,-2.613 1.047,-3.972 0,-1.465 -1.047,-1.778 -2.301,-1.778 -3.554,0 -4.496,4.074 -5.644,6.692 -2.719,6.168 -15.266,27.597 -22.27,27.597 -1.988,0 -1.988,-2.82 -1.988,-4.179 0,-7.215 2.719,-17.774 4.914,-24.676 0.317,-1.149 0.734,-2.297 0.734,-3.449 0,-1.567 -0.835,-2.301 -2.406,-2.301 -3.242,0 -6.062,1.988 -7.109,5.125 -1.985,5.957 -2.824,12.859 -2.824,19.133 z" /><path
         id="path16"
         style="fill:#2483d1;fill-opacity:1;fill-rule:nonzero;stroke:none"
         d="m 119.258,52.871 c 0,-3.137 0.312,-6.273 0.941,-9.305 0.731,-3.136 3.137,-8.257 3.137,-11.082 0,-1.672 -0.836,-2.3 -2.406,-2.3 -4.391,0 -6.27,2.929 -7.528,6.691 -1.148,3.66 -2.195,8.992 -2.195,12.859 0,6.067 1.254,17.879 9.516,17.879 7.422,0 16.308,-11.082 20.281,-16.726 0.836,-1.153 2.824,-3.973 2.824,-5.332 0,-1.047 0,-2.301 -1.359,-2.301 -1.149,0 -1.989,1.254 -2.614,2.195 -3.136,4.914 -11.293,16.938 -16.937,16.938 -3.555,0 -3.66,-7.11 -3.66,-9.516 z m 4.183,-38.683 c -2.824,0 -4.914,2.929 -4.914,5.542 0,2.09 1.36,3.973 3.555,3.973 2.82,0 5.02,-2.824 5.02,-5.543 0,-2.09 -1.465,-3.972 -3.661,-3.972 z" /><path
         id="path18"
         style="fill:#002255;fill-opacity:1;fill-rule:nonzero;stroke:none"
         d="M 47.77,56.59 V 36.266 c 0,-14.946 0.156,-24.309 1.546,-35.668 L 49.008,0 c 0,0 -2.32,0.598 -7.574,0.598 C 36.027,0.598 34.02,0 34.02,0 l -0.157,0.598 c 1.391,10.761 1.547,21.519 1.547,35.668 V 56.59 c 0,14.746 -0.156,24.906 -1.547,35.668 l 0.157,0.597 c 0,0 2.164,-0.597 7.878,-0.597 H 262.93 c 3.242,0 6.797,0.199 9.269,0.597 l 0.309,-0.597 c -0.156,-2.789 -0.309,-3.188 -0.309,-5.18 0,-1.996 0.153,-4.586 0.309,-6.18 l -0.309,-0.796 c 0,0 -202.488,2.39 -223.191,2.39 C 47.926,77.711 47.77,59.777 47.77,56.59 Z" /><path
         id="path20"
         style="fill:#002255;fill-opacity:1;fill-rule:nonzero;stroke:none"
         d="m 162.16,60.918 32.035,-47.207 c 2.485,-3.531 3.399,-4.969 4.317,-5.883 0,-0.523 -0.262,-0.914 -0.785,-0.914 -0.786,0 -7.325,0.914 -11.375,0.914 h -28.508 c -2.875,0 -5.754,-0.133 -7.844,-0.394 l -0.395,0.394 c 0.133,1.832 0.395,2.484 0.395,3.793 0,1.305 -0.262,3.27 -0.395,4.313 L 150,16.328 c 0,0 15.82,-1.18 31.902,-1.437 l -32.949,48.64 c -1.18,1.571 -1.961,3.008 -3.141,4.184 l 0.524,0.656 c 0,0 7.324,-0.394 11.379,-0.394 h 31.64 c 2.747,0 5.754,0.132 7.848,0.394 l 0.262,-0.394 c -0.133,-1.829 -0.262,-2.485 -0.262,-3.789 0,-1.309 0.129,-3.27 0.262,-4.317 l -0.262,-0.394 c 0,0 -18.047,1.441 -35.043,1.441 z" /><path
         id="path22"
         style="fill:#002255;fill-opacity:1;fill-rule:nonzero;stroke:none"
         d="m 220.258,47.188 c 3.531,-0.133 9.152,-0.262 12.554,-0.262 3.661,0 7.583,0.129 11.114,0.262 3.922,10.589 6.801,19.351 7.324,21.05 1.566,-0.261 3.137,-0.261 4.707,-0.261 1.566,0 7.453,0 9.02,0.261 -4.707,-9.543 -17.52,-41.582 -25.758,-62.242 h -8.11 c -9.019,20.922 -18.175,41.453 -27.718,62.242 1.175,-0.261 4.183,-0.261 5.23,-0.261 1.047,0 3.137,0 4.313,0.261 1.441,-5.492 4.187,-13.074 7.324,-21.05 z m 21.836,-5.102 c -3.137,0.133 -7.059,0.133 -9.676,0.133 -2.875,0 -7.059,0 -10.066,-0.133 3.398,-7.977 6.929,-16.215 10.066,-23.274 h 0.262 c 3.008,6.668 6.406,15.168 9.414,23.274 z" /><path
         id="path24"
         style="fill:#002255;fill-opacity:1;fill-rule:nonzero;stroke:none"
         d="m 2.594,110.707 c 0,-2.023 0.054,-3.969 0.269,-5.402 l -0.027,-0.082 c -0.324,0.054 -1.078,0.082 -1.402,0.082 -0.325,0 -1.055,-0.028 -1.379,-0.082 L 0,105.305 c 0.215,1.539 0.27,3.379 0.27,5.402 v 6.621 c 0,2.027 -0.055,3.945 -0.27,5.402 l 0.027,0.082 c 0,0 0.485,-0.082 1.407,-0.082 h 7.375 c 0.566,0 1.187,0.028 1.621,0.082 l 0.054,-0.082 c -0.027,-0.378 -0.054,-0.918 -0.054,-1.187 0,-0.27 0.027,-0.731 0.054,-0.945 l -0.054,-0.11 c 0,0 -4,0.594 -7.621,0.594 -0.188,-0.648 -0.215,-3.293 -0.215,-3.754 z" /><path
         id="path26"
         style="fill:#002255;fill-opacity:1;fill-rule:nonzero;stroke:none"
         d="m 18.02,116.652 -0.106,3.215 c 0,0.352 -0.164,0.539 -0.379,0.703 -0.758,0.567 -1.676,1.055 -2.488,1.055 -1.215,0 -1.996,-0.813 -1.996,-1.648 0,-1.215 0.566,-2.137 2.672,-2.704 z m 0,4.782 c 0.296,1.082 1.109,1.566 2.109,1.566 0.676,0 1.512,-0.16 2.133,-0.836 l -0.188,-0.648 c -0.297,0.109 -0.543,0.136 -0.73,0.136 -0.27,0 -0.621,-0.054 -0.813,-0.218 -0.269,-0.243 -0.429,-0.891 -0.429,-2.106 0,-0.785 0.078,-3.785 0.078,-4.082 0,-3.644 -2.403,-4.375 -4.457,-4.375 -2.051,0 -3.297,1 -3.969,1.567 l -0.082,0.109 0.457,1.808 0.351,0.028 c 0.758,-1.215 1.676,-2.297 2.973,-2.297 0.973,0 2.594,0.137 2.594,3.187 0,0.192 -0.109,0.297 -0.188,0.325 l -2.515,0.57 c -2.754,0.621 -4.485,2.078 -4.485,3.914 0,2 1.379,2.918 3.379,2.918 1.485,0 2.242,-0.352 3.676,-1.566 z" /><path
         id="path28"
         style="fill:#002255;fill-opacity:1;fill-rule:nonzero;stroke:none"
         d="m 25.285,120.543 v -6.996 c 1.051,-1.082 1.727,-1.594 2.836,-1.594 1.649,0 3.106,1.375 3.106,4.727 0,3.351 -1,5.242 -3.567,5.242 -0.836,0 -1.836,-0.703 -2.375,-1.379 z m 0,-11.32 c 0,-2 0.024,-3.403 0.16,-5.078 0,-0.192 -0.082,-0.27 -0.242,-0.27 -0.703,0.27 -1.269,0.457 -2.351,0.539 l -0.055,0.082 c 0.191,1.16 0.324,3.16 0.324,5.215 v 11.047 c 0,1.054 -0.027,1.461 -0.133,2.027 0.16,0.164 0.457,0.215 0.754,0.215 0.297,-0.324 0.594,-0.781 0.895,-1.32 0.781,0.672 2.023,1.32 3.187,1.32 2.754,0 5.809,-1.945 5.809,-6.535 0,-3.297 -2.352,-5.594 -4.973,-5.594 -1.297,0 -2.457,0.352 -3.375,1.352 z" /><path
         id="path30"
         style="fill:#002255;fill-opacity:1;fill-rule:nonzero;stroke:none"
         d="m 34.094,117.191 c 0,3.243 2.133,5.809 5.726,5.809 3.567,0 5.727,-2.512 5.727,-6.051 0,-3.676 -1.973,-6.078 -5.621,-6.078 -3.539,0 -5.832,2.484 -5.832,6.32 z m 5.644,-5.238 c 2.864,0 3.43,2.215 3.43,5.485 0,2.593 -1.297,4.484 -3.106,4.484 -2.863,0 -3.593,-3.11 -3.593,-5.188 0,-2.351 0.73,-4.781 3.269,-4.781 z" /><path
         id="path32"
         style="fill:#002255;fill-opacity:1;fill-rule:nonzero;stroke:none"
         d="m 49.367,113.707 v -2.457 c 0,-0.191 -0.055,-0.27 -0.164,-0.27 -0.621,0.133 -1.594,0.161 -2.187,0.079 l -0.055,0.082 c 0.191,1.187 0.242,3.214 0.242,5.242 v 1.484 c 0,2.028 -0.051,3.434 -0.242,4.863 l 0.055,0.082 c 0.324,-0.054 0.945,-0.082 1.269,-0.082 0.324,0 0.945,0.028 1.27,0.082 l 0.054,-0.082 c -0.214,-1.539 -0.242,-2.808 -0.242,-4.863 v -1.402 c 0,-1.137 0.324,-1.785 0.918,-2.676 0.379,-0.594 1,-0.945 1.512,-0.945 0.543,0 1.055,0.054 1.406,0.379 l 0.215,-0.055 0.543,-2 -0.109,-0.109 c -0.461,-0.133 -0.489,-0.188 -0.973,-0.188 -1.461,0 -2.242,0.836 -3.43,2.891 z" /><path
         id="path34"
         style="fill:#002255;fill-opacity:1;fill-rule:nonzero;stroke:none"
         d="m 61.113,116.652 -0.105,3.215 c 0,0.352 -0.164,0.539 -0.379,0.703 -0.758,0.567 -1.676,1.055 -2.488,1.055 -1.215,0 -1.996,-0.813 -1.996,-1.648 0,-1.215 0.566,-2.137 2.671,-2.704 z m 0,4.782 c 0.297,1.082 1.11,1.566 2.11,1.566 0.675,0 1.511,-0.16 2.132,-0.836 l -0.187,-0.648 c -0.297,0.109 -0.543,0.136 -0.73,0.136 -0.27,0 -0.622,-0.054 -0.813,-0.218 -0.27,-0.243 -0.43,-0.891 -0.43,-2.106 0,-0.785 0.082,-3.785 0.082,-4.082 0,-3.644 -2.406,-4.375 -4.461,-4.375 -2.05,0 -3.293,1 -3.968,1.567 l -0.082,0.109 0.457,1.808 0.351,0.028 c 0.758,-1.215 1.676,-2.297 2.973,-2.297 0.973,0 2.594,0.137 2.594,3.187 0,0.192 -0.106,0.297 -0.188,0.325 l -2.512,0.57 c -2.757,0.621 -4.488,2.078 -4.488,3.914 0,2 1.379,2.918 3.379,2.918 1.484,0 2.242,-0.352 3.676,-1.566 z" /><path
         id="path36"
         style="fill:#002255;fill-opacity:1;fill-rule:nonzero;stroke:none"
         d="m 66.566,111.141 c -0.566,0 -1.132,0 -1.457,-0.055 -0.191,0.461 -0.351,0.703 -0.593,1.109 l 0.132,0.188 c 0.461,-0.028 1.297,-0.028 1.918,-0.055 v 3.703 c 0,1.621 -0.082,3.567 -0.082,4.375 0,1.758 1.137,2.594 2.379,2.594 1.137,0 2,-0.27 3.133,-0.996 l -0.351,-0.649 c -0.809,0.27 -1.43,0.297 -2.106,0.188 -0.648,-0.082 -0.891,-0.731 -0.891,-2.215 0,-0.812 0.082,-1.973 0.082,-3.594 v -3.406 h 1.024 c 0.648,0 1.57,0.027 1.945,0.055 0.082,-0.43 0.164,-0.703 0.324,-1.106 l -0.132,-0.191 c -0.489,0.027 -1.27,0.055 -1.891,0.055 h -1.27 c 0,-2 0,-2.379 0.133,-3.946 0,-0.187 -0.082,-0.269 -0.242,-0.269 -0.703,0.269 -1.027,0.566 -1.891,0.676 l -0.054,0.082 c -0.055,0.945 -0.11,1.89 -0.11,3.457 z" /><path
         id="path38"
         style="fill:#002255;fill-opacity:1;fill-rule:nonzero;stroke:none"
         d="m 79.027,104.602 -2.054,3.214 c -0.215,0.352 -0.297,0.461 -0.297,0.758 0,0.188 0.191,0.352 0.379,0.352 0.191,0 0.406,-0.11 0.812,-0.512 l 3.106,-2.945 -0.082,-0.297 c -0.621,-0.598 -1.325,-0.625 -1.485,-0.625 -0.136,0 -0.297,0.027 -0.379,0.055 z m -6.539,12.589 c 0,3.243 2.137,5.809 5.731,5.809 3.566,0 5.726,-2.512 5.726,-6.051 0,-3.676 -1.972,-6.078 -5.621,-6.078 -3.539,0 -5.836,2.484 -5.836,6.32 z m 5.649,-5.238 c 2.863,0 3.429,2.215 3.429,5.485 0,2.593 -1.296,4.484 -3.105,4.484 -2.863,0 -3.594,-3.11 -3.594,-5.188 0,-2.351 0.731,-4.781 3.27,-4.781 z" /><path
         id="path40"
         style="fill:#002255;fill-opacity:1;fill-rule:nonzero;stroke:none"
         d="m 87.766,113.707 v -2.457 c 0,-0.191 -0.055,-0.27 -0.164,-0.27 -0.622,0.133 -1.594,0.161 -2.188,0.079 l -0.055,0.082 c 0.188,1.187 0.243,3.214 0.243,5.242 v 1.484 c 0,2.028 -0.055,3.434 -0.243,4.863 l 0.055,0.082 c 0.324,-0.054 0.945,-0.082 1.27,-0.082 0.324,0 0.945,0.028 1.269,0.082 l 0.055,-0.082 c -0.215,-1.539 -0.242,-2.808 -0.242,-4.863 v -1.402 c 0,-1.137 0.324,-1.785 0.918,-2.676 0.378,-0.594 1,-0.945 1.511,-0.945 0.539,0 1.055,0.054 1.407,0.379 l 0.214,-0.055 0.539,-2 -0.105,-0.109 c -0.461,-0.133 -0.488,-0.188 -0.973,-0.188 -1.461,0 -2.242,0.836 -3.433,2.891 z" /><path
         id="path42"
         style="fill:#002255;fill-opacity:1;fill-rule:nonzero;stroke:none"
         d="m 93.297,106.602 c 0,0.73 0.648,1.378 1.379,1.378 0.73,0 1.379,-0.648 1.379,-1.378 0,-0.731 -0.649,-1.379 -1.379,-1.379 -0.731,0 -1.379,0.648 -1.379,1.379 z m 0.269,9.781 v 1.484 c 0,2.028 -0.05,3.406 -0.242,4.863 l 0.055,0.082 c 0.324,-0.054 0.945,-0.082 1.269,-0.082 0.325,0 0.946,0.028 1.27,0.082 l 0.055,-0.082 c -0.215,-1.511 -0.243,-2.808 -0.243,-4.863 v -1.918 c 0,-2.027 0.055,-3 0.243,-4.644 0,-0.246 -0.055,-0.274 -0.243,-0.274 -0.621,0.082 -1.785,0.082 -2.351,0.028 l -0.055,0.082 c 0.164,1.16 0.242,3.214 0.242,5.242 z" /><path
         id="path44"
         style="fill:#002255;fill-opacity:1;fill-rule:nonzero;stroke:none"
         d="m 106.297,120.246 0.109,0.082 0.133,2.402 c 0,0.055 0.027,0.082 0.109,0.082 0.352,-0.027 0.676,-0.082 1.055,-0.082 0.352,0 0.863,0.028 1.215,0.082 l 0.055,-0.082 c -0.219,-1.16 -0.461,-3.16 -0.461,-5.187 v -1.539 c 0,-2.027 0.027,-3.43 0.242,-4.863 l -0.051,-0.082 c -0.324,0.054 -0.949,0.082 -1.273,0.082 -0.325,0 -0.946,-0.028 -1.27,-0.082 l -0.051,0.082 c 0.188,1.566 0.243,2.808 0.243,4.863 v 2.648 c -0.84,1.407 -2.379,2.836 -3.704,2.836 -0.945,0 -1.808,-0.297 -1.808,-2.808 v -2.676 c 0,-2.027 0.027,-3.43 0.242,-4.863 l -0.055,-0.082 c -0.324,0.054 -0.945,0.082 -1.269,0.082 -0.324,0 -0.946,-0.028 -1.27,-0.082 l -0.054,0.082 c 0.218,1.539 0.246,2.808 0.246,4.863 v 3.242 c 0,1.863 0.863,3.754 3.539,3.754 1.672,0 3.187,-1.375 4.078,-2.754 z" /><path
         id="path46"
         style="fill:#002255;fill-opacity:1;fill-rule:nonzero;stroke:none"
         d="m 113.605,113.223 v -1.973 c 0,-0.191 -0.054,-0.27 -0.164,-0.27 -0.621,0.133 -1.593,0.161 -2.187,0.079 l -0.055,0.082 c 0.192,1.187 0.242,3.214 0.242,5.242 v 1.484 c 0,2.028 -0.027,3.406 -0.242,4.863 l 0.055,0.082 c 0.324,-0.054 0.945,-0.082 1.269,-0.082 0.325,0 0.946,0.028 1.27,0.082 l 0.055,-0.082 c -0.215,-1.539 -0.243,-2.808 -0.243,-4.863 v -3.269 c 1.27,-1.297 2.782,-2.106 3.727,-2.106 1.027,0 1.785,0.594 1.785,2.403 v 2.972 c 0,2.028 -0.027,3.406 -0.246,4.863 l 0.055,0.082 c 0.324,-0.054 0.945,-0.082 1.269,-0.082 0.325,0 0.946,0.028 1.27,0.082 l 0.055,-0.082 c -0.215,-1.539 -0.243,-2.808 -0.243,-4.863 v -2.726 c 0,-0.379 0,-0.703 -0.027,-1.028 1.297,-1.433 2.379,-1.621 3.43,-1.621 1.461,0 2.164,0.594 2.164,2.403 v 2.972 c 0,2.028 -0.028,3.406 -0.246,4.863 l 0.054,0.082 c 0.325,-0.054 0.946,-0.082 1.27,-0.082 0.324,0 0.945,0.028 1.269,0.082 l 0.055,-0.082 c -0.215,-1.539 -0.242,-2.808 -0.242,-4.863 v -2.699 c 0,-2.406 -0.434,-4.297 -3.352,-4.297 -1.457,0 -3.023,0.512 -4.566,2.133 -0.242,-1.297 -1.348,-2.133 -2.863,-2.133 -1.672,0 -3.27,1.082 -4.539,2.43 z" /><path
         id="path48"
         style="fill:#002255;fill-opacity:1;fill-rule:nonzero;stroke:none"
         d="m 144.199,120.246 0.106,0.082 0.136,2.402 c 0,0.055 0.028,0.082 0.11,0.082 0.347,-0.027 0.672,-0.082 1.051,-0.082 0.351,0 0.867,0.028 1.218,0.082 l 0.051,-0.082 c -0.215,-1.16 -0.457,-3.16 -0.457,-5.187 v -1.539 c 0,-2.027 0.027,-3.43 0.242,-4.863 l -0.054,-0.082 c -0.325,0.054 -0.946,0.082 -1.27,0.082 -0.324,0 -0.945,-0.028 -1.27,-0.082 l -0.054,0.082 c 0.191,1.566 0.242,2.808 0.242,4.863 v 2.648 c -0.836,1.407 -2.375,2.836 -3.699,2.836 -0.946,0 -1.813,-0.297 -1.813,-2.808 v -2.676 c 0,-2.027 0.028,-3.43 0.246,-4.863 l -0.054,-0.082 c -0.325,0.054 -0.946,0.082 -1.27,0.082 -0.324,0 -0.945,-0.028 -1.269,-0.082 l -0.055,0.082 c 0.215,1.539 0.242,2.808 0.242,4.863 v 3.242 c 0,1.863 0.867,3.754 3.539,3.754 1.676,0 3.188,-1.375 4.082,-2.754 z" /><path
         id="path50"
         style="fill:#002255;fill-opacity:1;fill-rule:nonzero;stroke:none"
         d="m 151.504,113.223 v -1.973 c 0,-0.191 -0.055,-0.27 -0.16,-0.27 -0.621,0.133 -1.594,0.161 -2.188,0.079 l -0.054,0.082 c 0.187,1.187 0.242,3.214 0.242,5.242 v 1.484 c 0,2.028 -0.028,3.406 -0.242,4.863 l 0.054,0.082 c 0.324,-0.054 0.946,-0.082 1.27,-0.082 0.324,0 0.945,0.028 1.269,0.082 l 0.055,-0.082 c -0.219,-1.539 -0.246,-2.808 -0.246,-4.863 v -3.269 c 1.269,-1.297 2.785,-2.106 3.73,-2.106 1.028,0 1.782,0.594 1.782,2.403 v 2.972 c 0,2.028 -0.028,3.406 -0.243,4.863 l 0.055,0.082 c 0.324,-0.054 0.945,-0.082 1.27,-0.082 0.324,0 0.945,0.028 1.269,0.082 l 0.055,-0.082 c -0.219,-1.539 -0.242,-2.808 -0.242,-4.863 v -2.726 c 0,-0.379 0,-0.703 -0.028,-1.028 1.297,-1.433 2.375,-1.621 3.43,-1.621 1.461,0 2.16,0.594 2.16,2.403 v 2.972 c 0,2.028 -0.027,3.406 -0.242,4.863 l 0.055,0.082 c 0.324,-0.054 0.945,-0.082 1.269,-0.082 0.324,0 0.946,0.028 1.27,0.082 l 0.054,-0.082 c -0.214,-1.539 -0.242,-2.808 -0.242,-4.863 v -2.699 c 0,-2.406 -0.433,-4.297 -3.351,-4.297 -1.457,0 -3.028,0.512 -4.567,2.133 -0.242,-1.297 -1.351,-2.133 -2.863,-2.133 -1.676,0 -3.27,1.082 -4.539,2.43 z" /><path
         id="path52"
         style="fill:#002255;fill-opacity:1;fill-rule:nonzero;stroke:none"
         d="m 170.578,115.355 c 0.461,-2.808 2.219,-3.402 3.082,-3.402 1.055,0 2.27,0.996 2.27,3.024 0,0.242 -0.11,0.378 -0.379,0.378 z m 7.215,4.567 c -0.945,1.027 -2.215,1.484 -3.699,1.484 -0.949,0 -2.219,-0.351 -2.946,-1.539 -0.488,-0.758 -0.648,-1.836 -0.648,-3.429 h 7.348 c 0.297,0 0.484,-0.165 0.484,-0.461 0,-2.27 -1.105,-5.106 -4.672,-5.106 -2.785,0 -5.539,2.242 -5.539,6.215 0,1.539 0.297,3.051 1.215,4.133 0.918,1.133 2.461,1.781 4.297,1.781 1.945,0 3.676,-1 4.699,-2.402 z" /><path
         id="path54"
         style="fill:#002255;fill-opacity:1;fill-rule:nonzero;stroke:none"
         d="m 180.156,117.328 c 0,2.027 -0.054,3.973 -0.242,5.402 l 0.055,0.082 c 0.324,-0.054 0.945,-0.082 1.269,-0.082 0.324,0 0.946,0.028 1.27,0.082 l 0.054,-0.082 c -0.218,-1.539 -0.246,-3.347 -0.246,-5.402 v -8.105 c 0,-2.028 0.11,-3.352 0.246,-5.078 0,-0.192 -0.082,-0.27 -0.246,-0.27 -0.699,0.27 -1.269,0.457 -2.347,0.539 l -0.055,0.082 c 0.188,1.16 0.242,3.16 0.242,5.211 z" /><path
         id="path56"
         style="fill:#002255;fill-opacity:1;fill-rule:nonzero;stroke:none"
         d="m 186.191,115.355 c 0.457,-2.808 2.215,-3.402 3.079,-3.402 1.054,0 2.269,0.996 2.269,3.024 0,0.242 -0.105,0.378 -0.379,0.378 z m 7.211,4.567 c -0.945,1.027 -2.214,1.484 -3.699,1.484 -0.945,0 -2.215,-0.351 -2.945,-1.539 -0.488,-0.758 -0.649,-1.836 -0.649,-3.429 h 7.348 c 0.297,0 0.488,-0.165 0.488,-0.461 0,-2.27 -1.109,-5.106 -4.675,-5.106 -2.782,0 -5.54,2.242 -5.54,6.215 0,1.539 0.297,3.051 1.219,4.133 0.918,1.133 2.457,1.781 4.293,1.781 1.946,0 3.676,-1 4.703,-2.402 z" /><path
         id="path58"
         style="fill:#002255;fill-opacity:1;fill-rule:nonzero;stroke:none"
         d="m 195.77,106.602 c 0,0.73 0.648,1.378 1.375,1.378 0.73,0 1.378,-0.648 1.378,-1.378 0,-0.731 -0.648,-1.379 -1.378,-1.379 -0.727,0 -1.375,0.648 -1.375,1.379 z m 2.484,9.347 c 0,-2.027 0.055,-3 0.242,-4.644 0,-0.246 -0.055,-0.274 -0.242,-0.274 -0.621,0.082 -1.785,0.082 -2.352,0.028 l -0.054,0.082 c 0.164,1.16 0.246,3.214 0.246,5.242 v 3.754 c 0,3.703 -0.192,6.808 -1.703,6.808 -0.786,0 -1.325,-0.675 -1.621,-1.215 l -0.434,0.11 c 0,0.726 0,1.996 -0.109,2.402 l 0.027,0.082 c 0.219,0.137 0.648,0.242 1.164,0.242 1.703,0 2.891,-1 3.648,-2.187 0.809,-1.297 1.188,-2.836 1.188,-6.891 z" /><path
         id="path60"
         style="fill:#002255;fill-opacity:1;fill-rule:nonzero;stroke:none"
         d="m 206.148,106.602 c 0,0.73 0.649,1.378 1.379,1.378 0.727,0 1.375,-0.648 1.375,-1.378 0,-0.731 -0.648,-1.379 -1.375,-1.379 -0.73,0 -1.379,0.648 -1.379,1.379 z m 0.27,9.781 v 1.484 c 0,2.028 -0.055,3.406 -0.242,4.863 l 0.054,0.082 c 0.325,-0.054 0.946,-0.082 1.27,-0.082 0.324,0 0.945,0.028 1.27,0.082 l 0.054,-0.082 c -0.219,-1.511 -0.246,-2.808 -0.246,-4.863 v -1.918 c 0,-2.027 0.055,-3 0.246,-4.644 0,-0.246 -0.054,-0.274 -0.246,-0.274 -0.621,0.082 -1.781,0.082 -2.348,0.028 l -0.054,0.082 c 0.16,1.16 0.242,3.214 0.242,5.242 z" /><path
         id="path62"
         style="fill:#002255;fill-opacity:1;fill-rule:nonzero;stroke:none"
         d="m 221.715,117.867 c 0,-0.863 0.051,-1.863 0.051,-2.726 0,-2.813 -0.918,-4.27 -3.348,-4.27 -1.027,0 -2.945,0.406 -4.676,2.43 l -0.054,-0.078 v -1.973 c -0.024,-0.191 -0.051,-0.27 -0.161,-0.27 -0.621,0.133 -1.593,0.161 -2.187,0.079 l -0.055,0.082 c 0.188,1.187 0.242,3.214 0.242,5.242 v 1.484 c 0,2.028 -0.027,3.406 -0.242,4.863 l 0.055,0.082 c 0.324,-0.054 0.945,-0.082 1.269,-0.082 0.325,0 0.946,0.028 1.27,0.082 l 0.055,-0.082 c -0.219,-1.539 -0.246,-2.808 -0.246,-4.863 v -3.16 c 1.378,-1.621 2.945,-2.215 3.917,-2.215 1.379,0 1.946,0.539 1.946,2.727 v 2.648 c 0,2.028 -0.055,3.434 -0.242,4.863 l 0.054,0.082 c 0.325,-0.054 0.946,-0.082 1.27,-0.082 0.324,0 0.945,0.028 1.269,0.082 l 0.055,-0.082 c -0.215,-1.539 -0.242,-2.808 -0.242,-4.863 z" /><path
         id="path64"
         style="fill:#002255;fill-opacity:1;fill-rule:nonzero;stroke:none"
         d="m 224.695,111.141 c -0.566,0 -1.133,0 -1.457,-0.055 -0.191,0.461 -0.351,0.703 -0.593,1.109 l 0.132,0.188 c 0.461,-0.028 1.297,-0.028 1.918,-0.055 v 3.703 c 0,1.621 -0.078,3.567 -0.078,4.375 0,1.758 1.133,2.594 2.375,2.594 1.137,0 2,-0.27 3.137,-0.996 l -0.352,-0.649 c -0.812,0.27 -1.433,0.297 -2.109,0.188 -0.648,-0.082 -0.891,-0.731 -0.891,-2.215 0,-0.812 0.082,-1.973 0.082,-3.594 v -3.406 h 1.028 c 0.648,0 1.566,0.027 1.945,0.055 0.078,-0.43 0.16,-0.703 0.324,-1.106 l -0.136,-0.191 c -0.489,0.027 -1.27,0.055 -1.891,0.055 h -1.27 c 0,-2 0,-2.379 0.133,-3.946 0,-0.187 -0.078,-0.269 -0.242,-0.269 -0.703,0.269 -1.027,0.566 -1.891,0.676 l -0.054,0.082 c -0.055,0.945 -0.11,1.89 -0.11,3.457 z" /><path
         id="path66"
         style="fill:#002255;fill-opacity:1;fill-rule:nonzero;stroke:none"
         d="m 232.969,115.355 c 0.461,-2.808 2.215,-3.402 3.082,-3.402 1.051,0 2.269,0.996 2.269,3.024 0,0.242 -0.109,0.378 -0.379,0.378 z m 7.215,4.567 c -0.946,1.027 -2.215,1.484 -3.704,1.484 -0.945,0 -2.214,-0.351 -2.945,-1.539 -0.484,-0.758 -0.644,-1.836 -0.644,-3.429 h 7.347 c 0.297,0 0.485,-0.165 0.485,-0.461 0,-2.27 -1.106,-5.106 -4.672,-5.106 -2.785,0 -5.539,2.242 -5.539,6.215 0,1.539 0.297,3.051 1.215,4.133 0.918,1.133 2.457,1.781 4.296,1.781 1.946,0 3.672,-1 4.7,-2.402 z" /><path
         id="path68"
         style="fill:#002255;fill-opacity:1;fill-rule:nonzero;stroke:none"
         d="m 242.547,117.328 c 0,2.027 -0.055,3.973 -0.242,5.402 l 0.054,0.082 c 0.325,-0.054 0.946,-0.082 1.27,-0.082 0.324,0 0.945,0.028 1.269,0.082 l 0.055,-0.082 c -0.219,-1.539 -0.246,-3.347 -0.246,-5.402 v -8.105 c 0,-2.028 0.109,-3.352 0.246,-5.078 0,-0.192 -0.082,-0.27 -0.246,-0.27 -0.699,0.27 -1.269,0.457 -2.348,0.539 l -0.054,0.082 c 0.187,1.16 0.242,3.16 0.242,5.211 z" /><path
         id="path70"
         style="fill:#002255;fill-opacity:1;fill-rule:nonzero;stroke:none"
         d="m 247.363,106.602 c 0,0.73 0.649,1.378 1.379,1.378 0.731,0 1.379,-0.648 1.379,-1.378 0,-0.731 -0.648,-1.379 -1.379,-1.379 -0.73,0 -1.379,0.648 -1.379,1.379 z m 0.274,9.781 v 1.484 c 0,2.028 -0.055,3.406 -0.246,4.863 l 0.054,0.082 c 0.325,-0.054 0.946,-0.082 1.27,-0.082 0.324,0 0.945,0.028 1.269,0.082 l 0.055,-0.082 c -0.215,-1.511 -0.242,-2.808 -0.242,-4.863 v -1.918 c 0,-2.027 0.055,-3 0.242,-4.644 0,-0.246 -0.055,-0.274 -0.242,-0.274 -0.621,0.082 -1.785,0.082 -2.352,0.028 l -0.054,0.082 c 0.164,1.16 0.246,3.214 0.246,5.242 z" /><path
         id="path72"
         style="fill:#002255;fill-opacity:1;fill-rule:nonzero;stroke:none"
         d="m 253.23,125.543 c 0,-0.895 0.813,-1.895 1.758,-2.406 0.782,0 2.024,-0.082 2.403,-0.082 1.297,0 2.109,0.027 2.863,0.461 0.785,0.457 1.055,1.242 1.055,1.945 0,1.648 -2.215,2.512 -4.539,2.512 -1.754,0 -3.54,-0.594 -3.54,-2.43 z m 7.809,-10.512 c 0,-1.863 -0.73,-2.73 -1.379,-3.133 0.813,0.055 1.703,0.161 2.836,0.27 l 0.082,-0.082 c -0.055,-0.242 -0.082,-0.457 -0.082,-0.703 0,-0.242 0.027,-0.457 0.082,-0.703 l -0.082,-0.078 c -1.297,0.132 -2.269,0.402 -4.266,0.511 -0.488,-0.16 -1.082,-0.242 -1.648,-0.242 -2.137,0 -4.594,1.43 -4.594,4.106 0,2.027 1.16,2.945 1.918,3.378 -0.785,0.54 -1.73,1.325 -1.73,2.243 0,1.105 0.648,2.078 2.082,2.351 -0.731,0.297 -1.594,0.809 -2.27,1.348 -0.351,0.515 -0.621,1.297 -0.621,1.785 0,2.133 2.324,3.051 5.188,3.051 4.215,0 6.726,-1.754 6.726,-4.293 0,-1.192 -0.379,-2.028 -1.133,-2.676 -1.027,-0.863 -2.867,-0.891 -3.812,-0.891 -0.457,0 -1.539,0.055 -2.16,0.133 -0.379,0.028 -0.649,0.055 -0.785,0.055 -0.754,0 -1.567,-0.109 -1.567,-1.27 0,-0.539 0.137,-1 0.731,-1.511 0.351,0.187 1.16,0.379 2,0.379 2.808,0 4.484,-1.895 4.484,-4.028 z m -2.109,0.028 c 0,1.648 -0.672,2.918 -2.293,2.918 -1.946,0 -2.543,-1.27 -2.543,-3.133 0,-1.785 0.812,-2.946 2.379,-2.946 1.757,0 2.457,1.243 2.457,3.161 z" /><path
         id="path74"
         style="fill:#002255;fill-opacity:1;fill-rule:nonzero;stroke:none"
         d="m 265.617,115.355 c 0.457,-2.808 2.215,-3.402 3.078,-3.402 1.055,0 2.27,0.996 2.27,3.024 0,0.242 -0.11,0.378 -0.379,0.378 z m 7.211,4.567 c -0.945,1.027 -2.215,1.484 -3.699,1.484 -0.945,0 -2.215,-0.351 -2.945,-1.539 -0.489,-0.758 -0.649,-1.836 -0.649,-3.429 h 7.348 c 0.297,0 0.488,-0.165 0.488,-0.461 0,-2.27 -1.109,-5.106 -4.676,-5.106 -2.781,0 -5.539,2.242 -5.539,6.215 0,1.539 0.297,3.051 1.219,4.133 0.918,1.133 2.457,1.781 4.293,1.781 1.945,0 3.676,-1 4.703,-2.402 z" /><path
         id="path76"
         style="fill:#002255;fill-opacity:1;fill-rule:nonzero;stroke:none"
         d="m 285.191,117.867 c 0,-0.863 0.051,-1.863 0.051,-2.726 0,-2.813 -0.918,-4.27 -3.347,-4.27 -1.028,0 -2.946,0.406 -4.676,2.43 l -0.055,-0.078 v -1.973 c -0.027,-0.191 -0.051,-0.27 -0.16,-0.27 -0.621,0.133 -1.594,0.161 -2.188,0.079 l -0.054,0.082 c 0.187,1.187 0.242,3.214 0.242,5.242 v 1.484 c 0,2.028 -0.027,3.406 -0.242,4.863 l 0.054,0.082 c 0.325,-0.054 0.946,-0.082 1.27,-0.082 0.324,0 0.945,0.028 1.269,0.082 l 0.055,-0.082 c -0.219,-1.539 -0.246,-2.808 -0.246,-4.863 v -3.16 c 1.379,-1.621 2.945,-2.215 3.918,-2.215 1.379,0 1.945,0.539 1.945,2.727 v 2.648 c 0,2.028 -0.054,3.434 -0.242,4.863 l 0.055,0.082 c 0.324,-0.054 0.945,-0.082 1.269,-0.082 0.325,0 0.946,0.028 1.27,0.082 l 0.055,-0.082 c -0.219,-1.539 -0.243,-2.808 -0.243,-4.863 z" /><path
         id="path78"
         style="fill:#002255;fill-opacity:1;fill-rule:nonzero;stroke:none"
         d="m 292.359,111.953 c 1.028,0 1.973,0.781 2.703,1.996 l 0.352,-0.027 0.621,-2.215 -0.055,-0.078 c -0.835,-0.434 -2.242,-0.758 -3.593,-0.758 -2.809,0 -5.754,2.297 -5.754,5.969 0,3.785 2.133,6.16 5.429,6.16 1.622,0 2.891,-0.539 3.973,-1.918 l -0.512,-0.566 h -0.109 c -1.027,0.918 -1.891,1.136 -2.891,1.136 -1.972,0 -3.511,-1.785 -3.511,-4.945 0,-2.973 1.566,-4.754 3.347,-4.754 z" /><path
         id="path80"
         style="fill:#002255;fill-opacity:1;fill-rule:nonzero;stroke:none"
         d="m 297.656,106.602 c 0,0.73 0.649,1.378 1.379,1.378 0.731,0 1.379,-0.648 1.379,-1.378 0,-0.731 -0.648,-1.379 -1.379,-1.379 -0.73,0 -1.379,0.648 -1.379,1.379 z m 0.274,9.781 v 1.484 c 0,2.028 -0.055,3.406 -0.246,4.863 l 0.054,0.082 c 0.324,-0.054 0.946,-0.082 1.27,-0.082 0.324,0 0.945,0.028 1.269,0.082 l 0.055,-0.082 c -0.215,-1.511 -0.242,-2.808 -0.242,-4.863 v -1.918 c 0,-2.027 0.055,-3 0.242,-4.644 0,-0.246 -0.055,-0.274 -0.242,-0.274 -0.621,0.082 -1.785,0.082 -2.352,0.028 l -0.054,0.082 c 0.164,1.16 0.246,3.214 0.246,5.242 z" /><path
         id="path82"
         style="fill:#002255;fill-opacity:1;fill-rule:nonzero;stroke:none"
         d="m 304.172,115.355 c 0.461,-2.808 2.215,-3.402 3.082,-3.402 1.051,0 2.269,0.996 2.269,3.024 0,0.242 -0.109,0.378 -0.378,0.378 z m 7.215,4.567 c -0.946,1.027 -2.215,1.484 -3.703,1.484 -0.946,0 -2.215,-0.351 -2.946,-1.539 -0.484,-0.758 -0.648,-1.836 -0.648,-3.429 h 7.351 c 0.297,0 0.485,-0.165 0.485,-0.461 0,-2.27 -1.106,-5.106 -4.672,-5.106 -2.785,0 -5.539,2.242 -5.539,6.215 0,1.539 0.297,3.051 1.215,4.133 0.918,1.133 2.457,1.781 4.297,1.781 1.945,0 3.671,-1 4.699,-2.402 z" /><path
         id="path84"
         style="fill:#002255;fill-opacity:1;fill-rule:nonzero;stroke:none"
         d="m 49.383,133.621 h 1.16 c 0.812,-0.922 1.676,-1.785 2.703,-2.57 l -0.406,-0.539 c -1.028,0.433 -1.891,0.945 -2.891,1.648 -0.89,-0.676 -1.808,-1.187 -2.863,-1.648 l -0.434,0.539 c 0.973,0.758 1.918,1.57 2.731,2.57 z m -2.516,17.371 c 0,-0.137 0,-0.297 0.137,-0.488 l 9.59,-14.02 c 0.543,-0.757 0.812,-1.164 0.812,-1.461 0,-0.105 -0.054,-0.16 -0.164,-0.16 -0.457,0.078 -2.566,0.16 -3.402,0.16 h -8.215 c -0.594,0 -1.215,-0.027 -1.648,-0.082 l -0.051,0.082 c 0.023,0.379 0.051,0.786 0.051,1.055 0,0.27 -0.028,0.676 -0.051,0.891 l 0.051,0.082 c 3.675,-0.297 6.863,-0.567 9.593,-0.567 0.133,0 0.215,0.133 0.078,0.325 l -9.968,14.617 c -0.16,0.215 -0.403,0.621 -0.703,0.996 l 0.082,0.109 c 0,0 1.539,-0.082 2.351,-0.082 h 9.809 c 0.945,0 1.484,0.028 1.918,0.082 l 0.054,-0.082 c -0.027,-0.375 -0.054,-0.781 -0.054,-1.051 0,-0.273 0.027,-0.675 0.054,-0.894 l -0.054,-0.078 c 0,0 -6.727,0.566 -10.27,0.566 z" /><path
         id="path86"
         style="fill:#002255;fill-opacity:1;fill-rule:nonzero;stroke:none"
         d="m 60.977,144.859 v 2.754 c 0,2 -0.028,3.379 -0.27,4.836 l 0.027,0.082 c 0,0 0.375,-0.082 1.325,-0.082 0.918,0 1.296,0.082 1.296,0.082 l 0.051,-0.082 c -0.242,-1.539 -0.269,-2.781 -0.269,-4.836 v -2.754 c 0,-2.027 0.054,-3.187 0.269,-4.836 l -0.051,-0.082 c 0,0 -0.378,0.082 -1.296,0.082 -0.95,0 -1.325,-0.082 -1.325,-0.082 l -0.027,0.082 c 0.242,1.457 0.27,2.918 0.27,4.836 z" /><path
         id="path88"
         style="fill:#002255;fill-opacity:1;fill-rule:nonzero;stroke:none"
         d="m 69.973,147.613 v -2.754 c 0,-2.027 0.027,-3.297 0.273,-4.836 l -0.055,-0.082 c 0,0 -0.406,0.082 -1.324,0.082 -0.945,0 -1.297,-0.082 -1.297,-0.082 l -0.027,0.082 c 0.242,1.457 0.269,2.918 0.269,4.836 v 2.754 c 0,2 -0.027,3.379 -0.269,4.836 l 0.027,0.082 c 0,0 0.379,-0.082 1.379,-0.082 h 5.754 c 0.567,0 1.188,0.028 1.621,0.082 l 0.055,-0.082 c -0.027,-0.375 -0.055,-0.429 -0.055,-0.699 0,-0.273 0.028,-0.625 0.055,-0.84 l -0.055,-0.109 c 0,0 -2.512,0.324 -6.133,0.324 -0.191,-0.648 -0.218,-3.078 -0.218,-3.512 z" /><path
         id="path90"
         style="fill:#002255;fill-opacity:1;fill-rule:nonzero;stroke:none"
         d="m 79.609,144.859 v 2.754 c 0,2 -0.027,3.379 -0.269,4.836 l 0.027,0.082 c 0,0 0.379,-0.082 1.324,-0.082 0.918,0 1.297,0.082 1.297,0.082 l 0.055,-0.082 c -0.246,-1.539 -0.27,-2.781 -0.27,-4.836 v -2.754 c 0,-2.027 0.051,-3.187 0.27,-4.836 l -0.055,-0.082 c 0,0 -0.379,0.082 -1.297,0.082 -0.945,0 -1.324,-0.082 -1.324,-0.082 l -0.027,0.082 c 0.242,1.457 0.269,2.918 0.269,4.836 z" /><path
         id="path92"
         style="fill:#002255;fill-opacity:1;fill-rule:nonzero;stroke:none"
         d="m 86.367,143.887 -0.082,4.968 c 0,1.461 -0.109,2.571 -0.269,3.594 l 0.027,0.082 c 0,0 0.621,-0.082 1.051,-0.082 0.461,0 1.054,0.082 1.054,0.082 l 0.028,-0.082 c -0.324,-0.918 -0.434,-2.672 -0.434,-4.133 l -0.023,-4.89 0.16,-0.055 c 1.781,1.918 3.891,4.594 6.699,8.567 0.219,0.296 0.352,0.484 0.406,0.593 0.188,-0.027 1.512,-0.082 1.704,-0.082 l 0.082,-8.832 c 0,-1.461 0.132,-2.566 0.269,-3.594 v -0.054 c 0,0 -0.703,0.054 -1.137,0.054 -0.484,0 -1,-0.054 -1,-0.054 l -0.054,0.054 c 0.324,1 0.461,2.672 0.461,4.133 l 0.027,4.594 -0.215,0.055 c -2.055,-2.891 -4.621,-6.055 -6.945,-8.836 0,0 -0.539,0.054 -0.946,0.054 -0.675,0 -1.027,-0.054 -1.027,-0.054 l -0.027,0.054 c 0.164,1.106 0.191,2.403 0.191,3.864 z" /><path
         id="path94"
         style="fill:#002255;fill-opacity:1;fill-rule:nonzero;stroke:none"
         d="m 100.711,149.586 -0.488,2.297 c 1.648,0.594 3.164,0.84 4.269,0.84 3.973,0 4.891,-2.219 4.891,-3.813 0,-2.16 -1.781,-3.269 -3.945,-3.918 -1.079,-0.324 -2.672,-0.89 -2.672,-2.269 0,-1.188 1.05,-1.864 2.32,-1.864 1.488,0 2.621,1.11 3,1.946 l 0.406,-0.028 0.567,-1.945 -0.055,-0.082 c -0.836,-0.43 -2.297,-0.996 -4.051,-0.996 -2.164,0 -4.379,1.023 -4.379,3.43 0,2.132 1.813,3 3.621,3.648 1.703,0.594 2.809,1.539 2.809,2.754 0,1.352 -1.024,2 -2.539,2 -1.375,0 -2.649,-0.785 -3.32,-2.027 z" /><path
         id="path96"
         style="fill:#002255;fill-opacity:1;fill-rule:nonzero;stroke:none"
         d="m 112.996,144.859 v 2.754 c 0,2 -0.027,3.379 -0.269,4.836 l 0.027,0.082 c 0,0 0.379,-0.082 1.324,-0.082 0.918,0 1.297,0.082 1.297,0.082 l 0.055,-0.082 c -0.246,-1.539 -0.274,-2.781 -0.274,-4.836 v -0.945 c 0.082,0.027 0.164,0.082 0.274,0.164 1.836,1.945 2.941,3.215 4.672,5.699 0.46,-0.054 1.324,-0.082 1.812,-0.082 0.484,0 1.242,0.028 1.512,0.082 l 0.054,-0.082 c -2.164,-2.269 -4.136,-4.293 -5.863,-6.511 1,-1.161 3.836,-4.321 5.699,-5.915 l -0.054,-0.082 c -0.539,0.082 -1.809,0.082 -2.567,0.082 -1.269,1.809 -3.539,4.539 -4.699,5.403 -0.324,0.269 -0.566,0.433 -0.84,0.539 v -1.106 c 0,-2.027 0.055,-3.187 0.274,-4.836 l -0.055,-0.082 c 0,0 -0.379,0.082 -1.297,0.082 -0.945,0 -1.324,-0.082 -1.324,-0.082 l -0.027,0.082 c 0.242,1.457 0.269,2.918 0.269,4.836 z" /><path
         id="path98"
         style="fill:#002255;fill-opacity:1;fill-rule:nonzero;stroke:none"
         d="m 127.273,140.023 c -0.945,0 -1.375,-0.082 -1.375,-0.082 l -0.027,0.082 c 0.242,1.457 0.27,2.918 0.27,4.836 v 2.754 c 0,2 -0.028,3.379 -0.27,4.836 l 0.027,0.082 c 0,0 0.375,-0.082 1.375,-0.082 h 5.758 c 0.567,0 1.188,0.028 1.621,0.082 l 0.051,-0.082 c -0.027,-0.375 -0.051,-0.429 -0.051,-0.699 0,-0.273 0.024,-0.625 0.051,-0.84 l -0.051,-0.109 c 0,0 -2.515,0.324 -6.136,0.324 -0.188,-0.648 -0.215,-3.078 -0.215,-3.539 v -1.051 c 1.297,0 2.676,0.078 4.539,0.27 l 0.082,-0.082 c -0.055,-0.243 -0.082,-0.512 -0.082,-0.758 0,-0.242 0.027,-0.512 0.082,-0.754 l -0.082,-0.082 c -1.594,0.137 -1.352,0.269 -4.539,0.269 v -0.511 c 0,-0.461 0.027,-3.028 0.215,-3.676 3.621,0 5.863,0.324 5.863,0.324 l 0.055,-0.109 c -0.028,-0.215 -0.055,-0.324 -0.055,-0.567 0,-0.214 0.027,-0.457 0.055,-0.836 l -0.055,-0.082 c -0.43,0.055 -1.051,0.082 -1.621,0.082 z" /><path
         id="path100"
         style="fill:#002255;fill-opacity:1;fill-rule:nonzero;stroke:none"
         d="m 138.574,149.883 c 0,2.379 -0.187,5.621 -2.324,5.621 -0.781,0 -1.27,-0.406 -1.566,-0.945 l -0.297,0.027 c -0.192,0.726 -0.461,1.699 -0.758,2.215 l 0.027,0.082 c 0.215,0.133 0.703,0.242 1.215,0.242 1.703,0 3.164,-0.566 4.27,-2.055 1.406,-1.863 1.593,-2.672 1.593,-5.781 v -3.945 c 0,-2.024 0.055,-3.969 0.27,-5.403 l -0.024,-0.082 c 0,0 -0.351,0.082 -1.296,0.082 -0.922,0 -1.325,-0.082 -1.325,-0.082 l -0.054,0.082 c 0.215,1.539 0.269,3.379 0.269,5.403 z" /><path
         id="path102"
         style="fill:#002255;fill-opacity:1;fill-rule:nonzero;stroke:none"
         d="m 162.645,144.887 c 0,-2.055 0.027,-3.325 0.269,-4.864 l -0.055,-0.082 c 0,0 -0.621,0.082 -0.89,0.082 -0.27,0 -1.028,-0.082 -1.028,-0.082 l -0.027,0.082 c 0.242,1.457 0.27,2.918 0.27,4.864 l 0.027,1.863 c 0.027,2.215 -0.539,4.836 -3.457,4.836 -2.649,0 -3.109,-2.082 -3.109,-4.594 v -2.105 c 0,-2.055 0.027,-3.325 0.273,-4.864 l -0.055,-0.082 c 0,0 -0.488,0.082 -1.406,0.082 -0.945,0 -1.352,-0.082 -1.352,-0.082 l -0.027,0.082 c 0.246,1.457 0.274,2.918 0.274,4.864 v 3.215 c 0,3.918 2.644,4.621 4.941,4.621 4.16,0 5.352,-2.571 5.352,-6.325 z" /><path
         id="path104"
         style="fill:#002255;fill-opacity:1;fill-rule:nonzero;stroke:none"
         d="m 166.941,143.887 -0.082,4.968 c 0,1.461 -0.109,2.571 -0.269,3.594 l 0.027,0.082 c 0,0 0.621,-0.082 1.055,-0.082 0.457,0 1.051,0.082 1.051,0.082 l 0.027,-0.082 c -0.324,-0.918 -0.43,-2.672 -0.43,-4.133 l -0.027,-4.89 0.16,-0.055 c 1.785,1.918 3.891,4.594 6.703,8.567 0.215,0.296 0.348,0.484 0.403,0.593 0.191,-0.027 1.515,-0.082 1.703,-0.082 l 0.082,-8.832 c 0,-1.461 0.133,-2.566 0.269,-3.594 v -0.054 c 0,0 -0.703,0.054 -1.136,0.054 -0.485,0 -0.997,-0.054 -0.997,-0.054 l -0.054,0.054 c 0.324,1 0.457,2.672 0.457,4.133 l 0.027,4.594 -0.215,0.055 c -2.054,-2.891 -4.621,-6.055 -6.945,-8.836 0,0 -0.539,0.054 -0.945,0.054 -0.676,0 -1.028,-0.054 -1.028,-0.054 l -0.027,0.054 c 0.164,1.106 0.191,2.403 0.191,3.864 z" /><path
         id="path106"
         style="fill:#002255;fill-opacity:1;fill-rule:nonzero;stroke:none"
         d="m 181.879,144.859 v 2.754 c 0,2 -0.027,3.379 -0.27,4.836 l 0.028,0.082 c 0,0 0.379,-0.082 1.324,-0.082 0.918,0 1.297,0.082 1.297,0.082 l 0.054,-0.082 c -0.246,-1.539 -0.269,-2.781 -0.269,-4.836 v -2.754 c 0,-2.027 0.051,-3.187 0.269,-4.836 l -0.054,-0.082 c 0,0 -0.379,0.082 -1.297,0.082 -0.945,0 -1.324,-0.082 -1.324,-0.082 l -0.028,0.082 c 0.243,1.457 0.27,2.918 0.27,4.836 z" /><path
         id="path108"
         style="fill:#002255;fill-opacity:1;fill-rule:nonzero;stroke:none"
         d="m 192.281,152.531 c 0.301,-0.082 0.731,-0.082 1.028,-0.082 0.269,0 0.812,0 1.054,0.082 1.512,-4.215 3.457,-8.347 5.352,-12.59 -0.274,0.082 -0.922,0.082 -1.192,0.082 -0.296,0 -0.648,0 -0.918,-0.082 -1.16,3.27 -2.457,7.051 -3.781,9.887 h -0.246 c -1.43,-3.293 -2.672,-6.562 -3.726,-9.887 -0.379,0.082 -0.946,0.082 -1.352,0.082 -0.484,0 -1.027,0 -1.484,-0.082 1.945,4.243 3.644,8.375 5.265,12.59 z" /><path
         id="path110"
         style="fill:#002255;fill-opacity:1;fill-rule:nonzero;stroke:none"
         d="m 203.84,140.023 c -0.945,0 -1.379,-0.082 -1.379,-0.082 l -0.027,0.082 c 0.242,1.457 0.269,2.918 0.269,4.836 v 2.754 c 0,2 -0.027,3.379 -0.269,4.836 l 0.027,0.082 c 0,0 0.379,-0.082 1.379,-0.082 h 5.754 c 0.566,0 1.187,0.028 1.621,0.082 l 0.055,-0.082 c -0.028,-0.375 -0.055,-0.429 -0.055,-0.699 0,-0.273 0.027,-0.625 0.055,-0.84 l -0.055,-0.109 c 0,0 -2.512,0.324 -6.133,0.324 -0.187,-0.648 -0.215,-3.078 -0.215,-3.539 v -1.051 c 1.297,0 2.672,0.078 4.539,0.27 l 0.078,-0.082 c -0.05,-0.243 -0.078,-0.512 -0.078,-0.758 0,-0.242 0.028,-0.512 0.078,-0.754 l -0.078,-0.082 c -1.594,0.137 -1.351,0.269 -4.539,0.269 v -0.511 c 0,-0.461 0.028,-3.028 0.215,-3.676 3.621,0 5.863,0.324 5.863,0.324 L 211,141.426 c -0.027,-0.215 -0.055,-0.324 -0.055,-0.567 0,-0.214 0.028,-0.457 0.055,-0.836 l -0.055,-0.082 c -0.433,0.055 -1.054,0.082 -1.621,0.082 z" /><path
         id="path112"
         style="fill:#002255;fill-opacity:1;fill-rule:nonzero;stroke:none"
         d="m 221.73,143.102 c 0,2.214 -0.808,3.027 -2.863,3.027 h -1.703 v -4.242 c 0,-0.649 0.324,-0.813 2.324,-0.813 1.352,0 2.242,0.488 2.242,2.028 z m -2.214,4.132 c 0.703,0.813 1.296,1.516 1.972,2.543 0.457,0.754 1.188,1.891 1.43,2.754 0.488,-0.082 1,-0.082 1.488,-0.082 0.512,0 0.809,0 1.324,0.082 l 0.055,-0.082 c -0.73,-0.808 -1.488,-1.945 -2.242,-3.133 -0.57,-0.89 -1.219,-1.808 -1.867,-2.675 1.324,-0.621 2.433,-1.727 2.433,-3.539 0,-2.028 -1.269,-3.161 -4.621,-3.161 -1.379,0 -2.676,0.082 -3.429,0.082 -0.868,0 -1.325,-0.082 -1.325,-0.082 l -0.054,0.082 c 0.242,1.457 0.269,2.918 0.269,4.836 v 2.754 c 0,2 -0.027,3.379 -0.269,4.836 l 0.027,0.082 c 0,0 0.379,-0.082 1.352,-0.082 0.918,0 1.324,0.082 1.324,0.082 l 0.051,-0.082 c -0.243,-1.539 -0.27,-2.808 -0.27,-4.836 v -0.351 h 1.813 c 0.16,0 0.351,0 0.539,-0.028 z" /><path
         id="path114"
         style="fill:#002255;fill-opacity:1;fill-rule:nonzero;stroke:none"
         d="m 229.82,150.992 6.618,-9.754 c 0.515,-0.73 0.703,-1.027 0.894,-1.215 0,-0.109 -0.055,-0.191 -0.164,-0.191 -0.16,0 -1.512,0.191 -2.352,0.191 h -5.886 c -0.598,0 -1.192,-0.027 -1.621,-0.082 l -0.082,0.082 c 0.027,0.379 0.082,0.512 0.082,0.782 0,0.269 -0.055,0.675 -0.082,0.894 l 0.082,0.078 c 0,0 3.265,-0.242 6.589,-0.297 l -6.808,10.051 c -0.242,0.324 -0.406,0.621 -0.649,0.867 l 0.11,0.133 c 0,0 1.511,-0.082 2.351,-0.082 h 6.536 c 0.57,0 1.191,0.028 1.621,0.082 l 0.054,-0.082 c -0.027,-0.375 -0.054,-0.511 -0.054,-0.781 0,-0.27 0.027,-0.676 0.054,-0.891 l -0.054,-0.082 c 0,0 -3.727,0.297 -7.239,0.297 z" /><path
         id="path116"
         style="fill:#002255;fill-opacity:1;fill-rule:nonzero;stroke:none"
         d="m 240.285,144.859 v 2.754 c 0,2 -0.027,3.379 -0.269,4.836 l 0.027,0.082 c 0,0 0.379,-0.082 1.324,-0.082 0.918,0 1.297,0.082 1.297,0.082 l 0.055,-0.082 c -0.246,-1.539 -0.274,-2.781 -0.274,-4.836 v -2.754 c 0,-2.027 0.055,-3.187 0.274,-4.836 l -0.055,-0.082 c 0,0 -0.379,0.082 -1.297,0.082 -0.945,0 -1.324,-0.082 -1.324,-0.082 l -0.027,0.082 c 0.242,1.457 0.269,2.918 0.269,4.836 z" /><path
         id="path118"
         style="fill:#002255;fill-opacity:1;fill-rule:nonzero;stroke:none"
         d="m 249.824,141.508 v 6.078 c 0,2.027 -0.027,3.406 -0.269,4.863 l 0.027,0.082 c 0,0 0.402,-0.082 1.348,-0.082 0.922,0 1.324,0.082 1.324,0.082 l 0.055,-0.082 c -0.243,-1.539 -0.27,-2.808 -0.27,-4.863 v -6.078 c 3.379,0 4.27,0.297 4.27,0.297 l 0.054,-0.082 c -0.054,-0.375 -0.054,-0.996 0,-1.7 l -0.054,-0.054 c -0.407,0.027 -0.973,0.054 -1.489,0.054 h -7.777 c -0.516,0 -1.082,-0.027 -1.488,-0.054 l -0.055,0.054 c 0.055,0.704 0.055,1.325 0,1.7 l 0.055,0.082 c 0,0 0.89,-0.297 4.269,-0.297 z" /><path
         id="path120"
         style="fill:#002255;fill-opacity:1;fill-rule:nonzero;stroke:none"
         d="m 263.961,146.805 c 0.781,-1.516 2.105,-3.407 4.348,-6.864 -0.243,0.055 -0.727,0.082 -0.973,0.082 -0.242,0 -0.863,-0.027 -1.106,-0.082 -0.785,2 -1.972,3.946 -3,5.621 -1.214,-1.917 -2.187,-3.703 -3.132,-5.621 -0.325,0.055 -1.082,0.082 -1.407,0.082 -0.324,0 -1.187,-0.027 -1.539,-0.082 l -0.082,0.11 c 1.055,1.375 3.43,4.617 4.676,6.914 -0.027,1.918 -0.027,4.484 -0.137,5.566 0.325,-0.054 0.973,-0.082 1.27,-0.082 0.297,0 0.945,0.028 1.242,0.082 -0.105,-0.945 -0.16,-3.808 -0.16,-5.726 z" /></g></g></svg>